<svg xmlns="http://www.w3.org/2000/svg" viewBox="0 0 64 64" role="img" aria-label="Slack Emoji Tailor favicon">
  <defs>
    <linearGradient id="bg" x1="8" y1="4" x2="56" y2="60" gradientUnits="userSpaceOnUse">
      <stop offset="0" stop-color="#7c3aed"/>
      <stop offset="0.55" stop-color="#4f46e5"/>
      <stop offset="1" stop-color="#06b6d4"/>
    </linearGradient>
    <linearGradient id="emoji" x1="18" y1="15" x2="48" y2="49" gradientUnits="userSpaceOnUse">
      <stop offset="0" stop-color="#fef3c7"/>
      <stop offset="1" stop-color="#f59e0b"/>
    </linearGradient>
  </defs>
  <rect width="64" height="64" rx="16" fill="url(#bg)"/>
  <path d="M14 21v-6h13" fill="none" stroke="#fff" stroke-width="4" stroke-linecap="round"/>
  <path d="M50 43v6H37" fill="none" stroke="#fff" stroke-width="4" stroke-linecap="round"/>
  <rect x="18" y="16" width="30" height="30" rx="8" fill="url(#emoji)" stroke="#fff" stroke-width="3"/>
  <circle cx="28" cy="28" r="2.4" fill="#1f2937"/>
  <circle cx="39" cy="28" r="2.4" fill="#1f2937"/>
  <path d="M27 37c4 3.2 8 3.2 12 0" fill="none" stroke="#1f2937" stroke-width="3" stroke-linecap="round"/>
  <path d="M15 49l34-34" stroke="#f8fafc" stroke-width="3" stroke-linecap="round" opacity="0.9"/>
  <circle cx="17" cy="47" r="4" fill="none" stroke="#f8fafc" stroke-width="2.5"/>
  <circle cx="23" cy="53" r="4" fill="none" stroke="#f8fafc" stroke-width="2.5"/>
  <path d="M49 15l2.2 4.6L56 22l-4.8 2.1L49 29l-2.2-4.9L42 22l4.8-2.4L49 15z" fill="#fde68a"/>
</svg>
